# xmcd CD database file
#
# Track frame offsets:
#	150
#	15385
#	33005
#	50314
#	66582
#	82527
#	101777
#	120180
#	138597
#	154967
#	172942
#	193445
#	208717
#	226050
#	241565
#	258372
#	279172
#	293825
#	313935
#	314590
#	315547
#	316395
#	317307
#	318165
#	319070
#	320302
#	321077
#	322030
#	323530
#	324392
#	325320
#	326467
#	327447
#	328355
#	329157
#	330005
#	330877
#
# Disc length: 4427 seconds
#
# Revision: 0
# Processed by: cddbd v1.5.2PL0 Copyright (c) Steve Scherf et al.
# Submitted via: CDex 1.70beta2
#
DISCID=03114925
DTITLE=Jones Country - Jones Country Recurrent CHC-1186
DYEAR=0000
DGENRE=Country
TTITLE0=Alabama and N Sync/(God Must Have Spent) A Little More Time On You
TTITLE1=Kenny Chesney/You Had Me From Hello
TTITLE2=Terri Clark/Everytime I Cry
TTITLE3=Joe Diffie/A Night To Remember [edit]
TTITLE4=Dixie Chicks/Tonight The Heartache's On Me
TTITLE5=Faith Hill/Secret Of Life
TTITLE6=Lonestar/Amazed
TTITLE7=Martina McBride/Whatever You Say [edit]
TTITLE8=Lila McCann/With You
TTITLE9=Reba McEntire/One Honest Heart
TTITLE10=Tim McGraw/Please Remember Me
TTITLE11=Jo Dee Messina/Lesson In Lovin' [edit]
TTITLE12=Brad Paisley/Who Needs Pictures
TTITLE13=Shedaisy/Little Goodbyes
TTITLE14=George Strait/Write This Down
TTITLE15=Steve Wariner/Two Teardrops
TTITLE16=Chely Wright/Single White Female
TTITLE17=Trisha Yearwood/I'll Still Love You More
TTITLE18=CHC1186/Track 19
TTITLE19=CHC1186/Track 20
TTITLE20=CHC1186/Track 21
TTITLE21=CHC1186/Track 22
TTITLE22=CHC1186/Track 23
TTITLE23=CHC1186/Track 24
TTITLE24=CHC1186/Track 25
TTITLE25=CHC1186/Track 26
TTITLE26=CHC1186/Track 27
TTITLE27=CHC1186/Track 28
TTITLE28=CHC1186/Track 29
TTITLE29=CHC1186/Track 30
TTITLE30=CHC1186/Track 31
TTITLE31=CHC1186/Track 32
TTITLE32=CHC1186/Track 33
TTITLE33=CHC1186/Track 34
TTITLE34=CHC1186/Track 35
TTITLE35=CHC1186/Track 36
TTITLE36=CHC1186/Track 37
EXTD=YEAR: 0000
EXTT0=
EXTT1=
EXTT2=
EXTT3=
EXTT4=
EXTT5=
EXTT6=
EXTT7=
EXTT8=
EXTT9=
EXTT10=
EXTT11=
EXTT12=
EXTT13=
EXTT14=
EXTT15=
EXTT16=
EXTT17=
EXTT18=
EXTT19=
EXTT20=
EXTT21=
EXTT22=
EXTT23=
EXTT24=
EXTT25=
EXTT26=
EXTT27=
EXTT28=
EXTT29=
EXTT30=
EXTT31=
EXTT32=
EXTT33=
EXTT34=
EXTT35=
EXTT36=
PLAYORDER=
